<?xml version="1.0" encoding="utf-8"?>
<!-- Generator: Adobe Illustrator 25.4.1, SVG Export Plug-In . SVG Version: 6.00 Build 0)  -->
<svg version="1.1" id="Layer_1" xmlns="http://www.w3.org/2000/svg" xmlns:xlink="http://www.w3.org/1999/xlink" x="0px" y="0px"
	 viewBox="0 0 136 33" style="enable-background:new 0 0 136 33;" xml:space="preserve">
<style type="text/css">
	.st0{fill:#FEBE10;}
</style>
<g id="Layer_2_00000183966180207918051460000017644926769556625543_">
	<g id="isologos">
		<path class="st0" d="M11.6,4.3c-1.5,0-2.8,0.5-3.9,1.5C6.6,6.7,6.1,8,6.1,9.5v1.1h3.4v4.1H6.1v13.7H1.9V14.6H0.2v-4.1h1.7V9.5
			c0-2.5,1-4.7,2.9-6.5C6.8,1.1,9,0.2,11.6,0.2V4.3z"/>
		<path class="st0" d="M13.9,28.4H18V0.2h-4.1V28.4z"/>
		<path class="st0" d="M80.5,17.7c0-1.9-0.7-3.5-2-4.8c-1.4-1.4-3-2-4.9-2c-1.9,0-3.5,0.7-4.9,2c-1.3,1.3-2,3-2,4.8
			c0,1.9,0.7,3.5,2,4.9c1.3,1.3,3,2,4.9,2c1.9,0,3.5-0.7,4.9-2C79.8,21.2,80.5,19.6,80.5,17.7z M84.6,17.7c0,3-1.1,5.6-3.2,7.8
			c-2.2,2.1-4.8,3.2-7.8,3.2c-3,0-5.6-1.1-7.8-3.2c-2.2-2.2-3.2-4.7-3.2-7.8s1.1-5.6,3.2-7.8c2.2-2.2,4.8-3.2,7.8-3.2
			c3,0,5.6,1.1,7.8,3.2C83.5,12.1,84.6,14.7,84.6,17.7z"/>
		<path class="st0" d="M100.8,16c0-1.4-0.5-2.6-1.5-3.6c-1-1-2.2-1.5-3.6-1.5c-1.4,0-2.6,0.5-3.6,1.5c-1,1-1.5,2.2-1.5,3.6v12.3
			h-4.1V16c0-2.5,0.9-4.6,2.8-6.5c1.9-1.9,4-2.8,6.5-2.8c2.4,0,4.6,0.9,6.5,2.8c1.9,1.9,2.8,4,2.8,6.5v12.3h-4.1V16z"/>
		<path class="st0" d="M124.4,17.7c0-1.9-0.7-3.5-2-4.8c-1.4-1.4-3-2-4.9-2c-1.9,0-3.5,0.7-4.9,2c-1.3,1.3-2,3-2,4.8
			c0,1.9,0.7,3.5,2,4.9c1.3,1.3,3,2,4.9,2c1.9,0,3.5-0.7,4.9-2C123.8,21.2,124.4,19.6,124.4,17.7z M128.6,17.7c0,3-1.1,5.6-3.2,7.8
			c-2.2,2.1-4.8,3.2-7.8,3.2c-3,0-5.6-1.1-7.8-3.2c-2.2-2.2-3.2-4.7-3.2-7.8c0-3,1-5.6,3.1-7.7c2.1-2.2,4.6-3.3,7.6-3.3
			c2.8,0,5.2,1,7.2,2.9V0.2h4.1V17.7z"/>
		<path class="st0" d="M130.8,28.4h4.1V7.1h-4.1V28.4z"/>
		<path class="st0" d="M33.2,6.7l-4.3,11l-4.4-11h-4.7l6.7,17.2l-4.1,9.4h4.7L37.9,6.7H33.2z"/>
		<path class="st0" d="M135,2.1c0,1.2-0.9,2.1-2.1,2.1s-2.1-0.9-2.1-2.1c0-1.2,0.9-2.1,2.1-2.1S135,0.9,135,2.1z"/>
		<path class="st0" d="M58.2,10c-2.1-2.2-4.6-3.3-7.6-3.3c-2.8,0-5.2,1-7.3,2.9V0.2h-4.2v16.1l0,0c0.6,0.5,1.2,1,1.8,1.5
			c0.1,0,0.1,0.1,0.2,0.1c1-0.1,3.4-0.2,4.4-0.3c0,0,0,0,0,0c-0.1-0.2-0.9-1.6-2.2-4c-0.3-0.5-0.3-0.5,0.3-0.7
			c0.3-0.1,0.7-0.1,1-0.2c0.4-0.1,0.7,0,1,0.1c1.1,0.6,3.3,3.3,4.5,4c0.2,0.1,0.4,0.1,0.6,0.1c1.1,0,3.5,0,4.7,0.1
			c1,0.1,3.5,0.2,3.6,1.7c0,0.4,0.1,1.5-3,1.8c-1.3,0.2-14.2,0-16.4,0l-0.2,0c0.2,0.8,0.5,1.6,0.8,2.3c0,0,0.7,1.5,2.5,3.3
			c2.1,1.9,4.6,2.9,7.4,2.9c3,0,5.6-1.1,7.8-3.2c2.2-2.2,3.3-4.8,3.3-7.8C61.3,14.8,60.3,12.3,58.2,10z"/>
	</g>
</g>
</svg>
